<?xml version="1.0" standalone="no"?>
<!DOCTYPE svg PUBLIC "-//W3C//DTD SVG 20010904//EN"
 "http://www.w3.org/TR/2001/REC-SVG-20010904/DTD/svg10.dtd">
<svg version="1.0" xmlns="http://www.w3.org/2000/svg"
 width="300.000000pt" height="300.000000pt" viewBox="0 0 300.000000 300.000000"
 preserveAspectRatio="xMidYMid meet">
<metadata>
Created by potrace 1.10, written by Peter Selinger 2001-2011
</metadata>
<g transform="translate(0.000000,300.000000) scale(0.100000,-0.100000)"
fill="#000000" stroke="none">
<path d="M435 2260 c-17 -5 -38 -23 -48 -39 -16 -27 -17 -77 -17 -614 l0 -585
26 -31 c24 -29 30 -31 91 -31 134 0 133 -5 133 430 0 225 4 350 10 350 5 0 44
-53 87 -117 42 -65 118 -181 168 -258 50 -77 126 -193 168 -257 42 -64 87
-124 99 -132 15 -11 45 -16 91 -16 58 0 71 3 92 24 13 13 26 39 30 57 3 19 5
287 3 596 -3 552 -3 562 -24 590 -38 51 -155 55 -200 6 l-24 -26 0 -368 c0
-244 -3 -369 -10 -369 -10 0 -93 125 -397 592 -62 95 -121 178 -131 184 -26
16 -112 24 -147 14z m146 -62 c13 -25 64 -104 178 -278 42 -63 78 -119 81
-125 3 -5 27 -44 55 -85 27 -41 54 -82 60 -91 5 -9 19 -29 29 -45 43 -63 125
-191 149 -234 l27 -45 2 460 3 460 68 3 c42 2 74 -2 83 -9 12 -10 14 -105 14
-598 0 -443 -3 -590 -12 -599 -7 -7 -39 -12 -75 -12 -71 0 -88 11 -122 78 -11
21 -27 44 -35 51 -9 8 -16 17 -16 21 0 4 -35 61 -78 126 -44 66 -92 139 -108
163 -16 24 -36 54 -44 66 -8 12 -30 46 -48 76 -18 30 -41 65 -52 79 -10 14
-46 68 -79 120 -33 52 -66 103 -73 113 -11 15 -12 -58 -10 -423 2 -332 0 -446
-9 -456 -9 -11 -31 -14 -83 -12 l-71 3 -3 595 c-1 327 0 601 3 608 3 8 29 12
79 12 68 0 76 -2 87 -22z"/>
<path d="M1523 2259 c-64 -19 -63 -6 -63 -653 l0 -584 26 -31 c24 -29 30 -31
91 -31 133 0 133 1 133 417 0 278 2 325 14 313 7 -8 55 -96 106 -195 51 -99
105 -193 121 -210 27 -27 35 -30 94 -30 59 0 67 3 94 30 16 17 70 111 121 210
51 99 97 186 104 194 8 11 12 -71 16 -332 l5 -345 24 -26 c22 -23 32 -26 97
-26 68 0 74 2 98 31 l26 31 0 591 0 592 -25 27 c-30 32 -94 45 -152 29 -57
-16 -49 -3 -221 -331 -141 -268 -177 -333 -187 -333 -10 0 -42 56 -177 313
-132 253 -168 317 -186 333 -22 20 -116 30 -159 16z m175 -109 c19 -36 60
-114 92 -175 31 -60 77 -148 102 -195 25 -47 69 -130 98 -185 28 -55 53 -101
55 -103 1 -2 18 27 36 65 19 37 71 136 117 220 45 84 82 154 82 157 0 2 34 68
76 145 l76 142 77 -3 76 -3 0 -605 0 -605 -71 -3 c-52 -2 -74 1 -83 12 -9 10
-11 122 -9 449 2 328 0 433 -9 426 -6 -6 -14 -21 -17 -35 -4 -14 -18 -43 -31
-65 -14 -21 -25 -44 -25 -50 0 -7 -12 -33 -28 -58 -15 -25 -65 -121 -111 -213
-81 -160 -87 -168 -119 -174 -29 -6 -99 0 -107 8 -4 4 -165 318 -247 481 -32
64 -60 117 -61 117 -1 0 -1 -196 1 -436 2 -329 0 -439 -9 -450 -9 -11 -30 -14
-83 -12 l-71 3 -3 595 c-1 327 0 601 3 608 3 9 26 12 82 10 l77 -3 34 -65z"/>
<path d="M460 852 c-24 -30 -25 -50 -4 -80 19 -28 74 -30 97 -4 36 40 12 94
-46 104 -21 4 -32 -1 -47 -20z m43 -24 l16 -23 0 23 c1 40 21 23 21 -18 0 -45
-10 -51 -33 -17 l-16 22 0 -24 c-1 -37 -15 -15 -17 25 -1 40 7 43 29 12z"/>
<path d="M1037 868 c-9 -5 -24 -23 -33 -39 -14 -28 -14 -33 1 -55 11 -17 25
-24 48 -24 56 0 71 33 42 89 -17 34 -35 43 -58 29z m40 -55 c12 -40 8 -58 -7
-33 -8 12 -13 13 -30 2 -23 -14 -24 -8 -9 37 15 41 32 39 46 -6z"/>
<path d="M1516 861 c-22 -24 -20 -74 2 -94 25 -22 75 -21 95 1 20 22 22 75 5
89 -7 6 -29 13 -50 16 -27 4 -40 1 -52 -12z m43 -28 c9 -17 11 -17 25 2 14 19
15 17 14 -25 0 -25 -3 -35 -5 -21 -4 19 -7 21 -14 10 -8 -12 -10 -12 -19 1 -8
12 -10 11 -10 -7 0 -13 -4 -23 -10 -23 -5 0 -10 18 -10 40 0 42 12 52 29 23z"/>
<path d="M1748 861 c-34 -28 -44 -68 -22 -92 23 -26 80 -25 94 0 16 31 12 48
-18 82 l-27 31 -27 -21z m45 -48 c17 -43 15 -52 -8 -33 -12 10 -19 10 -27 2
-19 -19 -28 -14 -19 11 5 12 12 30 15 40 9 27 23 20 39 -20z"/>
<path d="M1924 859 c-20 -22 -21 -73 -2 -96 17 -21 76 -16 88 8 21 38 -12 109
-50 109 -9 0 -25 -9 -36 -21z m66 -20 c0 -6 -9 -8 -20 -4 -11 4 -20 2 -20 -4
0 -6 6 -11 14 -11 20 0 36 -24 27 -39 -10 -15 -53 -11 -58 5 -2 7 6 10 24 7
l28 -4 -27 16 c-28 16 -34 26 -21 38 10 11 53 8 53 -4z"/>
<path d="M2111 859 c-25 -27 -27 -56 -5 -87 18 -26 56 -29 78 -6 19 18 21 77
4 92 -29 23 -56 23 -77 1z m29 -20 c0 -8 5 -7 15 1 9 7 18 11 20 8 3 -3 -1
-11 -10 -18 -14 -12 -14 -15 1 -31 10 -11 14 -22 11 -26 -4 -4 -14 2 -22 13
-13 17 -14 17 -15 2 0 -38 -20 -16 -20 22 0 22 5 40 10 40 6 0 10 -5 10 -11z"/>
<path d="M2296 858 c-9 -12 -16 -32 -16 -43 0 -31 28 -65 54 -65 29 0 44 17
52 59 12 60 -57 97 -90 49z m69 -18 c-3 -5 -12 -7 -20 -3 -8 3 -15 0 -15 -6 0
-6 9 -11 21 -11 11 0 18 -4 14 -10 -3 -5 -12 -7 -20 -3 -8 3 -15 0 -15 -6 0
-6 9 -11 20 -11 11 0 20 -4 20 -10 0 -5 -13 -10 -30 -10 -28 0 -30 2 -30 40 0
38 2 40 31 40 17 0 28 -4 24 -10z"/>
<path d="M650 851 c-16 -31 -12 -66 10 -86 15 -14 23 -15 34 -6 23 19 29 61
11 87 -19 29 -41 31 -55 5z m40 -41 c0 -22 -4 -40 -10 -40 -5 0 -10 18 -10 40
0 22 5 40 10 40 6 0 10 -18 10 -40z"/>
<path d="M816 854 c-20 -20 -21 -68 0 -85 22 -18 66 -19 87 -1 19 17 22 53 7
83 -13 24 -72 26 -94 3z m24 -19 c0 -8 7 -15 15 -15 8 0 15 7 15 15 0 8 5 15
10 15 6 0 10 -18 10 -40 0 -22 -4 -40 -10 -40 -5 0 -10 9 -10 20 0 27 -18 25
-30 -2 -10 -26 -10 -26 -14 25 -2 20 1 37 6 37 4 0 8 -7 8 -15z"/>
<path d="M1207 852 c-22 -24 -21 -65 1 -85 21 -19 57 -22 67 -7 4 6 -7 10 -24
10 -29 0 -31 2 -31 40 0 22 5 40 10 40 6 0 10 -13 10 -30 0 -24 4 -30 21 -30
16 0 19 4 13 23 -7 24 -33 57 -44 57 -4 0 -14 -8 -23 -18z"/>
<path d="M2492 858 c-19 -19 -14 -54 12 -85 l25 -28 22 22 c14 14 22 34 23 60
1 37 0 38 -34 41 -19 2 -41 -3 -48 -10z m26 -24 c8 -14 10 -14 21 0 20 24 34
19 17 -6 -9 -12 -16 -30 -16 -40 0 -10 -4 -18 -10 -18 -5 0 -10 8 -10 18 0 10
-7 28 -16 40 -8 12 -11 22 -5 22 5 0 14 -7 19 -16z"/>
</g>
</svg>
